<svg xmlns="http://www.w3.org/2000/svg" xml:space="preserve" id="Layer_1" x="0" y="0" style="enable-background:new 0 0 2000 2000" version="1.1" viewBox="0 0 2000 2000"><style>.st0{fill:#346cb3}</style><switch><g><path d="M415.84 1249.31v-164.55c0-10.15 8.26-18.38 18.45-18.38h9.82c6.46 0 12.46 3.37 15.79 8.88l80.65 133.17h-20.5L599 1075.42c3.32-5.59 9.36-9.03 15.88-9.03h10c10.19 0 18.45 8.23 18.45 18.38v164.55c0 10.15-8.26 18.38-18.45 18.38h-6.77c-10.16 0-18.4-8.18-18.45-18.3l-.5-116h8.66l-62.75 103.83c-3.34 5.52-9.33 8.9-15.8 8.9-6.43 0-12.4-3.34-15.75-8.81l-63.6-103.92h9.53v115.92c0 10.15-8.26 18.38-18.45 18.38h-6.7c-10.2-.01-18.46-8.24-18.46-18.39zM838.71 1134.5v-1.63c0-9.08 7.39-16.44 16.5-16.44h74.67c9.11 0 16.5 7.36 16.5 16.44v1.63c0 9.08-7.39 16.44-16.5 16.44h-74.67c-9.11 0-16.5-7.37-16.5-16.44zm81.98 135.49c-18.29 0-32.53-4.65-42.72-13.95-10.2-9.3-15.3-23.15-15.3-41.56V1095.2c0-9.08 7.39-16.44 16.5-16.44h12.31c9.11 0 16.5 7.36 16.5 16.44v118.43c0 6.52 1.68 11.6 5.05 15.24 3.37 3.64 7.94 5.46 13.71 5.46 2.07 0 4.05-.15 5.94-.46 7.89-1.29 15.62 2.95 18.41 10.41l.85 2.27c3.31 8.85-1.82 18.61-11.01 20.95l-.19.05c-6.43 1.62-13.12 2.44-20.05 2.44zM1030.68 1269.99c-11.94 0-22.23-2.06-30.89-6.18-8.66-4.12-15.35-9.73-20.06-16.82-4.72-7.09-7.07-15.05-7.07-23.87 0-9.01 2.26-17.01 6.78-24.01 4.52-7 11.69-12.41 21.51-16.25 9.81-3.83 22.71-5.75 38.68-5.75h40.99v25.88h-36.37c-10.59 0-17.85 1.73-21.79 5.18-3.95 3.45-5.92 7.77-5.92 12.94 0 5.75 2.26 10.31 6.78 13.66 4.52 3.36 10.63 5.03 18.33 5.03 7.69 0 14.58-1.73 20.64-5.18 6.06-3.45 10.34-8.72 12.84-15.82l6.93 20.99c-3.27 9.59-9.24 17.02-17.9 22.29-8.66 5.28-19.82 7.91-33.48 7.91zm47.34-19.16v-13.34l-2.89-6.61v-54.06c0-9.58-2.94-17.06-8.8-22.43-5.87-5.36-14.87-8.05-26.99-8.05-8.28 0-16.41 1.29-24.39 3.88-2.28.74-4.47 1.55-6.57 2.44-8.34 3.53-18 .29-22.08-7.77l-.63-1.24c-4.39-8.67-.54-19.23 8.4-23.1 4.64-2.01 9.63-3.72 14.96-5.13 11.93-3.16 24.06-4.74 36.37-4.74 23.67 0 42.05 5.56 55.14 16.68 13.08 11.12 19.63 28.47 19.63 52.05v71.42c0 9.31-7.58 16.86-16.92 16.86h-8.3c-9.35 0-16.93-7.55-16.93-16.86zM1185.76 1269.15h-30.52c-4.75 0-8.61-3.84-8.61-8.57v-187.07c0-4.73 3.85-8.57 8.61-8.57h137.71c4.75 0 8.61 3.84 8.61 8.57v20.78c0 4.73-3.85 8.57-8.61 8.57h-98.58v157.71c0 4.74-3.86 8.58-8.61 8.58zm4.8-112.32h89.79c4.75 0 8.61 3.84 8.61 8.57v20.78c0 4.73-3.85 8.57-8.61 8.57h-89.79v-37.92zM1333.77 1260.57V1073.5c0-4.73 3.85-8.57 8.61-8.57h30.52c4.75 0 8.61 3.84 8.61 8.57v187.07c0 4.73-3.85 8.57-8.61 8.57h-30.52c-4.76.01-8.61-3.83-8.61-8.57zM1497.47 1272.65c-16.4 0-32.17-2.19-47.3-6.56-11.97-3.46-22.08-7.74-30.32-12.85-3.62-2.24-4.94-6.87-3.19-10.74l9.04-19.97c2.1-4.64 7.74-6.45 12.15-3.89 6.79 3.93 14.46 7.3 23.01 10.11 12.1 3.99 24.31 5.98 36.61 5.98 9.37 0 16.94-.97 22.7-2.92 5.76-1.94 10-4.52 12.74-7.73 2.73-3.21 4.1-6.95 4.1-11.23 0-5.44-2.15-9.77-6.44-12.98-4.3-3.21-10.01-5.83-17.13-7.88-7.13-2.04-14.89-3.98-23.28-5.83a313.24 313.24 0 0 1-25.33-6.71c-8.49-2.63-16.3-6.13-23.43-10.5-7.13-4.38-12.79-10.11-16.99-17.21-4.2-7.1-6.3-16-6.3-26.69 0-11.67 3.12-22.32 9.37-31.94 6.25-9.63 15.76-17.31 28.55-23.05 12.78-5.73 28.85-8.61 48.17-8.61 12.89 0 25.62 1.56 38.22 4.67 9.64 2.38 18.34 5.56 26.09 9.54 3.95 2.03 5.63 6.79 3.91 10.89l-8.37 19.94c-1.91 4.55-7.24 6.54-11.68 4.4-6.64-3.19-13.42-5.71-20.35-7.58-9.76-2.63-19.14-3.94-28.11-3.94-9.37 0-16.89 1.02-22.55 3.06s-9.81 4.81-12.45 8.31c-2.64 3.5-3.95 7.39-3.95 11.67 0 5.45 2.15 9.82 6.44 13.13 4.29 3.31 9.96 5.89 16.99 7.73 7.03 1.85 14.83 3.7 23.43 5.54a258.3 258.3 0 0 1 25.48 6.86c8.39 2.73 16.11 6.18 23.14 10.36 7.03 4.18 12.74 9.82 17.13 16.92 4.39 7.1 6.59 15.9 6.59 26.4 0 11.48-3.18 21.98-9.52 31.51-6.35 9.53-15.96 17.21-28.85 23.05-12.88 5.82-28.99 8.74-48.32 8.74z" class="st0"/><linearGradient id="SVGID_1_" x1="815.84" x2="1080.153" y1="868.723" y2="868.723" gradientUnits="userSpaceOnUse"><stop offset=".015" style="stop-color:#f05a26"/><stop offset=".998" style="stop-color:#f89c23"/></linearGradient><path d="m944.89 855.03 27.65 28.28c4.49 4.59 11.85 4.7 16.47.24l71.61-69.01c6.49-6.25 12.95-12.53 19.4-18.83 2.17-2.12-21.84-26.98-24.33-29.3a151.786 151.786 0 0 0-32.57-23.12c-25.28-13.32-54.41-18.64-82.8-14.63-9.03 1.28-17.96 3.27-26.69 5.9 0 0-111.46 38.1-96.39 158.62 7.28 58.21 59.61 105.47 116.43 114.93 19.66 3.27 39.96 2.51 59.3-2.35 19.76-4.96 38.39-14.06 54.43-26.53 5.54-4.31 6.1-12.46 1.14-17.41-8.18-8.15-20.15-20.2-28.13-28.2-4.16-4.17-10.8-4.65-15.42-.99-12.88 10.19-42.01 25.91-83.99 5.96-12.27-5.83-23.56-19.28-30.57-30.36-14.6-23.09-14.37-51.86-1.48-75.76 18.97-35.19 61.84-52.23 98.89-35.44l-42.75 41.6c-4.6 4.46-4.69 11.81-.2 16.4z" style="fill:url(#SVGID_1_)"/><path d="m1083.76 947.01 11.69-45.51c1.93-7.52-4.98-14.32-12.5-12.31l-45.3 12.12c-7.56 2.02-10.08 11.48-4.53 17l33.61 33.4c5.58 5.53 15.07 2.92 17.03-4.7z" class="st0"/><linearGradient id="SVGID_00000071532472243858016870000007183871053622884243_" x1="659.31" x2="813.601" y1="1187.467" y2="1187.467" gradientUnits="userSpaceOnUse"><stop offset=".015" style="stop-color:#f05a26"/><stop offset=".998" style="stop-color:#f89c23"/></linearGradient><path d="m734.64 1179.48 16.14 16.51a6.821 6.821 0 0 0 9.61.14l41.8-40.28c3.79-3.65 7.56-7.32 11.32-10.99 1.27-1.24-12.75-15.75-14.2-17.1a88.506 88.506 0 0 0-19.01-13.5c-14.76-7.78-31.76-10.88-48.33-8.54-5.27.75-10.48 1.91-15.58 3.44 0 0-65.06 22.24-56.27 92.59 4.25 33.98 34.8 61.57 67.97 67.09 11.48 1.91 23.32 1.46 34.61-1.37a86.11 86.11 0 0 0 31.77-15.49c3.23-2.51 3.56-7.27.66-10.16-4.77-4.76-11.76-11.79-16.42-16.46-2.43-2.44-6.3-2.71-9-.58-7.52 5.95-24.52 15.12-49.03 3.48-7.16-3.4-13.75-11.25-17.84-17.73-8.52-13.48-8.39-30.27-.87-44.22 11.07-20.54 36.1-30.49 57.73-20.69l-24.95 24.28c-2.67 2.6-2.73 6.9-.11 9.58z" style="fill:url(#SVGID_00000071532472243858016870000007183871053622884243_)"/><path d="m815.7 1233.17 6.83-26.57c1.13-4.39-2.91-8.36-7.3-7.19l-26.44 7.07c-4.41 1.18-5.88 6.7-2.64 9.92l19.62 19.49c3.25 3.25 8.79 1.72 9.93-2.72z" class="st0"/></g></switch></svg>