<?xml version="1.0" encoding="utf-8"?>
<!-- Generator: Adobe Illustrator 27.7.0, SVG Export Plug-In . SVG Version: 6.00 Build 0)  -->
<svg version="1.1" id="Layer_1" xmlns="http://www.w3.org/2000/svg" xmlns:xlink="http://www.w3.org/1999/xlink" x="0px" y="0px"
	 viewBox="0 0 2000 255.7" style="enable-background:new 0 0 2000 255.7;" xml:space="preserve">
<style type="text/css">
	.st0{fill:#346CB3;}
	.st1{fill:url(#SVGID_1_);}
</style>
<path class="st0" d="M561.69,187.07V63.6c0-7.61,6.2-13.79,13.84-13.79h7.37c4.85,0,9.35,2.53,11.85,6.67l60.51,99.92h-15.38
	l59.23-99.82c2.49-4.2,7.02-6.77,11.91-6.77h7.5c7.64,0,13.84,6.17,13.84,13.79v123.46c0,7.61-6.2,13.79-13.84,13.79h-5.08
	c-7.62,0-13.81-6.14-13.84-13.73l-0.37-87.04h6.5L658.65,178c-2.5,4.14-7,6.68-11.86,6.68l0,0c-4.83,0-9.3-2.5-11.82-6.61
	l-47.72-77.97h7.15v86.98c0,7.61-6.2,13.79-13.84,13.79h-5.03C567.88,200.86,561.69,194.68,561.69,187.07z"/>
<path class="st0" d="M878.98,100.92v-1.22c0-6.81,5.54-12.34,12.38-12.34h56.03c6.84,0,12.38,5.52,12.38,12.34v1.22
	c0,6.81-5.54,12.34-12.38,12.34h-56.03C884.52,113.25,878.98,107.73,878.98,100.92z M940.49,202.58c-13.72,0-24.41-3.49-32.06-10.46
	c-7.66-6.98-11.48-17.37-11.48-31.18V71.43c0-6.81,5.54-12.34,12.38-12.34h9.24c6.84,0,12.38,5.52,12.38,12.34v88.86
	c0,4.89,1.26,8.71,3.79,11.44c2.53,2.73,5.96,4.1,10.29,4.1c1.56,0,3.04-0.12,4.46-0.35c5.92-0.97,11.72,2.21,13.82,7.81l0.64,1.7
	c2.49,6.64-1.36,13.97-8.26,15.72l-0.14,0.04C950.71,201.97,945.69,202.58,940.49,202.58z"/>
<path class="st0" d="M1023.02,202.58c-8.96,0-16.68-1.55-23.18-4.64c-6.5-3.09-11.52-7.3-15.05-12.62
	c-3.54-5.32-5.31-11.29-5.31-17.91c0-6.76,1.69-12.76,5.09-18.02c3.39-5.25,8.77-9.31,16.14-12.19c7.36-2.88,17.04-4.32,29.03-4.32
	h30.76v19.42h-27.29c-7.94,0-13.4,1.29-16.35,3.88c-2.96,2.59-4.44,5.83-4.44,9.71c0,4.32,1.69,7.74,5.09,10.25
	c3.39,2.52,7.98,3.78,13.76,3.78c5.77,0,10.94-1.29,15.49-3.88c4.55-2.59,7.76-6.54,9.64-11.87l5.2,15.75
	c-2.46,7.19-6.93,12.77-13.43,16.72C1041.65,200.61,1033.27,202.58,1023.02,202.58z M1058.54,188.21V178.2l-2.17-4.96v-40.57
	c0-7.19-2.2-12.8-6.61-16.83c-4.41-4.02-11.15-6.04-20.25-6.04c-6.21,0-12.31,0.97-18.3,2.91c-1.71,0.56-3.36,1.17-4.93,1.83
	c-6.26,2.65-13.5,0.22-16.57-5.83l-0.47-0.93c-3.3-6.51-0.41-14.43,6.3-17.33c3.48-1.51,7.22-2.79,11.23-3.85
	c8.95-2.37,18.05-3.56,27.29-3.56c17.76,0,31.55,4.17,41.37,12.52c9.82,8.34,14.73,21.36,14.73,39.05v53.59
	c0,6.99-5.69,12.65-12.7,12.65h-6.23C1064.23,200.86,1058.54,195.19,1058.54,188.21z"/>
<path class="st0" d="M1139.38,201.95h-22.9c-3.57,0-6.46-2.88-6.46-6.43V55.15c0-3.55,2.89-6.43,6.46-6.43h103.33
	c3.57,0,6.46,2.88,6.46,6.43v15.59c0,3.55-2.89,6.43-6.46,6.43h-73.97v118.34C1145.84,199.07,1142.95,201.95,1139.38,201.95z
	 M1142.98,117.67h67.38c3.57,0,6.46,2.88,6.46,6.43v15.59c0,3.55-2.89,6.43-6.46,6.43h-67.38V117.67z"/>
<path class="st0" d="M1250.44,195.52V55.15c0-3.55,2.89-6.43,6.46-6.43h22.9c3.57,0,6.46,2.88,6.46,6.43v140.36
	c0,3.55-2.89,6.43-6.46,6.43h-22.9C1253.33,201.95,1250.44,199.07,1250.44,195.52z"/>
<path class="st0" d="M1373.27,204.58c-12.31,0-24.14-1.64-35.49-4.92c-8.98-2.6-16.56-5.81-22.75-9.64
	c-2.71-1.68-3.71-5.15-2.39-8.06l6.78-14.98c1.58-3.48,5.81-4.84,9.12-2.92c5.1,2.95,10.85,5.48,17.26,7.59
	c9.08,2.99,18.24,4.49,27.47,4.49c7.03,0,12.71-0.73,17.03-2.19c4.32-1.46,7.51-3.39,9.56-5.8c2.05-2.41,3.08-5.22,3.08-8.43
	c0-4.08-1.61-7.33-4.83-9.74c-3.22-2.41-7.51-4.38-12.85-5.91c-5.35-1.53-11.17-2.99-17.47-4.38c-6.3-1.39-12.63-3.06-19.01-5.03
	c-6.37-1.97-12.23-4.6-17.58-7.88c-5.35-3.28-9.6-7.59-12.74-12.91c-3.15-5.33-4.72-12-4.72-20.03c0-8.76,2.34-16.75,7.03-23.97
	c4.69-7.22,11.83-12.99,21.42-17.29c9.59-4.3,21.64-6.46,36.15-6.46c9.67,0,19.23,1.17,28.68,3.5c7.24,1.79,13.76,4.18,19.58,7.16
	c2.96,1.52,4.22,5.1,2.93,8.17l-6.28,14.96c-1.43,3.41-5.43,4.91-8.77,3.3c-4.98-2.39-10.07-4.29-15.27-5.69
	c-7.33-1.97-14.36-2.95-21.09-2.95c-7.03,0-12.67,0.77-16.92,2.3c-4.25,1.53-7.36,3.61-9.34,6.24c-1.98,2.63-2.97,5.55-2.97,8.76
	c0,4.09,1.61,7.37,4.83,9.85c3.22,2.48,7.47,4.42,12.74,5.8c5.27,1.39,11.13,2.77,17.58,4.16c6.44,1.39,12.82,3.1,19.12,5.14
	c6.3,2.05,12.09,4.63,17.36,7.77c5.27,3.14,9.56,7.37,12.85,12.7c3.3,5.33,4.94,11.93,4.94,19.81c0,8.61-2.38,16.49-7.14,23.64
	c-4.76,7.15-11.98,12.91-21.64,17.29C1399.86,202.39,1387.77,204.58,1373.27,204.58z"/>
<linearGradient id="SVGID_1_" gradientUnits="userSpaceOnUse" x1="744.3687" y1="140.6629" x2="860.1384" y2="140.6629">
	<stop  offset="0.0146" style="stop-color:#F05A26"/>
	<stop  offset="0.9978" style="stop-color:#F89C23"/>
</linearGradient>
<path class="st1" d="M800.89,134.67L813,147.05c1.97,2.01,5.19,2.06,7.21,0.11l31.36-30.23c2.84-2.74,5.67-5.49,8.5-8.25
	c0.95-0.93-9.56-11.82-10.66-12.83c-4.28-3.98-9.09-7.4-14.27-10.13c-11.07-5.84-23.83-8.17-36.27-6.41
	c-3.96,0.56-7.87,1.43-11.69,2.58c0,0-48.82,16.69-42.22,69.48c3.19,25.49,26.11,46.2,51,50.34c8.61,1.43,17.5,1.1,25.97-1.03
	c8.65-2.17,16.81-6.16,23.84-11.62c2.43-1.89,2.67-5.46,0.5-7.63c-3.58-3.57-8.83-8.85-12.32-12.35c-1.82-1.83-4.73-2.04-6.75-0.44
	c-5.64,4.46-18.4,11.35-36.79,2.61c-5.37-2.55-10.32-8.44-13.39-13.3c-6.39-10.11-6.29-22.71-0.65-33.18
	c8.31-15.41,27.09-22.88,43.31-15.52l-18.72,18.22C798.97,129.43,798.93,132.66,800.89,134.67z"/>
<path class="st0" d="M861.72,174.95l5.12-19.93c0.85-3.29-2.18-6.27-5.48-5.39l-19.84,5.31c-3.31,0.89-4.42,5.03-1.98,7.44
	l14.72,14.63C856.7,179.43,860.86,178.29,861.72,174.95z"/>
</svg>
