<svg width="129" height="27" fill="none" xmlns="http://www.w3.org/2000/svg"><g fill="#FC0"><path d="M12.049 3.199c.3-.922 1.603-.922 1.902 0l1.743 5.364a1 1 0 0 0 .951.691h5.641c.969 0 1.372 1.24.588 1.81l-4.564 3.315a1 1 0 0 0-.363 1.118l1.743 5.365c.3.921-.755 1.687-1.539 1.118l-4.563-3.316a1 1 0 0 0-1.176 0L7.85 21.98c-.784.57-1.838-.197-1.54-1.118l1.744-5.365a1 1 0 0 0-.363-1.118l-4.564-3.316c-.784-.57-.38-1.809.588-1.809h5.64a1 1 0 0 0 .952-.69l1.743-5.365ZM38.049 3.199c.3-.922 1.603-.922 1.902 0l1.743 5.364a1 1 0 0 0 .951.691h5.641c.969 0 1.372 1.24.588 1.81l-4.564 3.315a1 1 0 0 0-.363 1.118l1.743 5.365c.3.921-.755 1.687-1.539 1.118l-4.563-3.316a1 1 0 0 0-1.176 0L33.85 21.98c-.784.57-1.838-.197-1.54-1.118l1.744-5.365a1 1 0 0 0-.363-1.118l-4.564-3.316c-.784-.57-.38-1.809.588-1.809h5.64a1 1 0 0 0 .952-.69l1.743-5.365ZM63.545 3.327c.293-.936 1.617-.936 1.91 0l1.632 5.225a1 1 0 0 0 .955.702h5.364c.96 0 1.368 1.22.603 1.798l-4.407 3.33a1 1 0 0 0-.351 1.096l1.667 5.336c.29.928-.782 1.682-1.558 1.096l-4.257-3.217a1 1 0 0 0-1.206 0L59.64 21.91c-.775.586-1.847-.168-1.557-1.096l1.667-5.336a1 1 0 0 0-.351-1.096l-4.407-3.33c-.765-.578-.356-1.798.603-1.798h5.364a1 1 0 0 0 .955-.702l1.633-5.225ZM89.049 3.199c.3-.922 1.603-.922 1.902 0l1.743 5.364a1 1 0 0 0 .951.691h5.641c.969 0 1.372 1.24.588 1.81l-4.564 3.315a1 1 0 0 0-.363 1.118l1.743 5.365c.3.921-.755 1.687-1.539 1.118l-4.563-3.316a1 1 0 0 0-1.176 0L84.85 21.98c-.784.57-1.839-.197-1.54-1.118l1.744-5.365a1 1 0 0 0-.363-1.118l-4.564-3.316c-.784-.57-.38-1.809.588-1.809h5.64a1 1 0 0 0 .952-.69l1.743-5.365ZM115.049 3.199c.299-.922 1.603-.922 1.902 0l1.743 5.364a1 1 0 0 0 .951.691h5.641c.969 0 1.372 1.24.588 1.81l-4.564 3.315a1 1 0 0 0-.363 1.118l1.743 5.365c.3.921-.755 1.687-1.539 1.118l-4.563-3.316a1 1 0 0 0-1.176 0l-4.563 3.316c-.784.57-1.839-.197-1.539-1.118l1.743-5.365a1 1 0 0 0-.363-1.118l-4.564-3.316c-.784-.57-.381-1.809.588-1.809h5.641a1 1 0 0 0 .951-.69l1.743-5.365Z"/></g></svg>